<svg xmlns="http://www.w3.org/2000/svg" xmlns:xlink="http://www.w3.org/1999/xlink" width="2000" zoomAndPan="magnify" viewBox="0 0 1500 749.999995" height="1000" preserveAspectRatio="xMidYMid meet" version="1.0"><defs><g/><clipPath id="ac9c23ccf7"><path d="M 687 321 L 1011 321 L 1011 692.878906 L 687 692.878906 Z M 687 321 " clip-rule="nonzero"/></clipPath><clipPath id="43a532f534"><rect x="0" width="1039" y="0" height="693"/></clipPath><clipPath id="2e7f72d3d3"><rect x="0" width="477" y="0" height="670"/></clipPath></defs><g transform="matrix(1, 0, 0, 1, 439, -0.000000000000042435)"><g clip-path="url(#43a532f534)"><g fill="#293041" fill-opacity="1"><g transform="translate(31.103854, 424.770924)"><g><path d="M 192.578125 -188.671875 C 192.054688 -189.191406 191.597656 -189.710938 191.203125 -190.234375 C 190.816406 -190.753906 190.363281 -191.273438 189.84375 -191.796875 C 192.445312 -196.492188 195.050781 -201.191406 197.65625 -205.890625 C 200.269531 -210.585938 202.882812 -215.285156 205.5 -219.984375 C 209.675781 -227.023438 214.046875 -234.066406 218.609375 -241.109375 C 223.171875 -248.160156 227.28125 -255.46875 230.9375 -263.03125 C 234.070312 -269.03125 236.878906 -275.226562 239.359375 -281.625 C 241.835938 -288.019531 244.25 -294.476562 246.59375 -301 C 247.632812 -303.875 248.285156 -307.003906 248.546875 -310.390625 C 248.804688 -313.785156 248.9375 -317.050781 248.9375 -320.1875 C 248.414062 -328.269531 245.738281 -334.460938 240.90625 -338.765625 C 236.082031 -343.078125 229.757812 -344.972656 221.9375 -344.453125 C 217.757812 -344.191406 213.648438 -343.601562 209.609375 -342.6875 C 205.566406 -341.769531 201.585938 -340.660156 197.671875 -339.359375 C 186.453125 -335.972656 175.617188 -331.671875 165.171875 -326.453125 C 154.734375 -321.234375 144.691406 -315.359375 135.046875 -308.828125 C 119.117188 -297.867188 103.71875 -286.125 88.84375 -273.59375 C 73.976562 -261.070312 59.757812 -247.765625 46.1875 -233.671875 C 42.269531 -229.503906 38.484375 -225.070312 34.828125 -220.375 C 31.179688 -215.675781 27.921875 -210.71875 25.046875 -205.5 C 13.304688 -184.882812 16.832031 -167.53125 35.625 -153.4375 C 41.363281 -149.257812 47.296875 -145.34375 53.421875 -141.6875 C 59.554688 -138.039062 65.882812 -134.648438 72.40625 -131.515625 C 82.582031 -126.816406 92.957031 -122.378906 103.53125 -118.203125 C 114.101562 -114.035156 124.609375 -109.734375 135.046875 -105.296875 C 146.003906 -100.597656 156.960938 -95.832031 167.921875 -91 C 178.878906 -86.175781 189.578125 -81.15625 200.015625 -75.9375 C 206.273438 -72.800781 212.273438 -69.34375 218.015625 -65.5625 C 223.765625 -61.78125 229.25 -57.800781 234.46875 -53.625 C 245.425781 -45.007812 252.726562 -34.832031 256.375 -23.09375 C 260.03125 -11.351562 258.726562 1.953125 252.46875 16.828125 C 251.945312 18.128906 251.425781 19.5 250.90625 20.9375 C 250.382812 22.375 249.726562 24.003906 248.9375 25.828125 C 250.769531 26.347656 252.398438 26.867188 253.828125 27.390625 C 255.265625 27.921875 257.03125 28.445312 259.125 28.96875 C 253.382812 30.007812 248.554688 31.960938 244.640625 34.828125 C 240.722656 37.703125 237.066406 41.097656 233.671875 45.015625 C 213.054688 67.972656 189.832031 86.429688 164 100.390625 C 138.164062 114.359375 110.113281 124.082031 79.84375 129.5625 C 74.625 130.601562 69.273438 131.125 63.796875 131.125 C 58.316406 131.125 52.96875 130.863281 47.75 130.34375 C 44.363281 130.082031 40.972656 129.234375 37.578125 127.796875 C 34.179688 126.359375 30.921875 124.859375 27.796875 123.296875 C 25.441406 121.992188 24.132812 120.101562 23.875 117.625 C 23.613281 115.144531 24.394531 112.988281 26.21875 111.15625 C 28.3125 108.550781 30.597656 106.140625 33.078125 103.921875 C 35.554688 101.703125 38.097656 99.8125 40.703125 98.25 C 45.140625 95.632812 49.640625 93.148438 54.203125 90.796875 C 58.773438 88.453125 63.28125 86.367188 67.71875 84.546875 C 89.375 74.890625 111.289062 66.082031 133.46875 58.125 C 155.65625 50.164062 178.226562 43.445312 201.1875 37.96875 C 206.664062 36.664062 211.101562 34.515625 214.5 31.515625 C 217.894531 28.515625 220.765625 24.535156 223.109375 19.578125 C 228.066406 8.347656 229.566406 -2.484375 227.609375 -12.921875 C 225.648438 -23.359375 220.238281 -32.75 211.375 -41.09375 C 203.28125 -48.40625 194.40625 -54.410156 184.75 -59.109375 C 175.875 -63.804688 166.804688 -68.238281 157.546875 -72.40625 C 148.285156 -76.582031 138.957031 -80.628906 129.5625 -84.546875 C 116.769531 -90.023438 103.847656 -95.304688 90.796875 -100.390625 C 77.753906 -105.484375 64.84375 -110.769531 52.0625 -116.25 C 45.539062 -119.125 39.082031 -122.191406 32.6875 -125.453125 C 26.289062 -128.710938 20.09375 -132.300781 14.09375 -136.21875 C 9.65625 -139.082031 5.410156 -142.34375 1.359375 -146 C -2.679688 -149.65625 -6.523438 -153.4375 -10.171875 -157.34375 C -19.828125 -168.3125 -22.175781 -180.578125 -17.21875 -194.140625 C -15.65625 -198.578125 -13.828125 -202.945312 -11.734375 -207.25 C -9.648438 -211.5625 -7.175781 -215.675781 -4.3125 -219.59375 C -0.914062 -224.289062 2.800781 -228.851562 6.84375 -233.28125 C 10.894531 -237.71875 15.140625 -242.023438 19.578125 -246.203125 C 47.234375 -272.296875 76.585938 -295.519531 107.640625 -315.875 C 120.691406 -324.488281 134.257812 -331.988281 148.34375 -338.375 C 162.4375 -344.769531 177.050781 -349.796875 192.1875 -353.453125 C 200.28125 -355.535156 208.304688 -356.773438 216.265625 -357.171875 C 224.222656 -357.566406 232.242188 -357.367188 240.328125 -356.578125 C 242.941406 -356.316406 245.289062 -355.925781 247.375 -355.40625 C 261.207031 -351.757812 270.863281 -345.300781 276.34375 -336.03125 C 281.820312 -326.769531 282.601562 -315.222656 278.6875 -301.390625 C 276.601562 -293.566406 273.800781 -286 270.28125 -278.6875 C 266.757812 -271.382812 262.390625 -264.601562 257.171875 -258.34375 C 248.296875 -247.382812 239.09375 -236.550781 229.5625 -225.84375 C 220.039062 -215.144531 210.453125 -204.445312 200.796875 -193.75 C 199.753906 -192.707031 198.445312 -191.796875 196.875 -191.015625 C 195.3125 -190.234375 193.878906 -189.453125 192.578125 -188.671875 Z M 56.359375 116.25 C 63.929688 117.550781 73 117.222656 83.5625 115.265625 C 94.132812 113.316406 105.289062 110.054688 117.03125 105.484375 C 128.78125 100.921875 140.265625 95.375 151.484375 88.84375 C 162.703125 82.320312 172.875 75.34375 182 67.90625 C 191.132812 60.46875 198.316406 52.835938 203.546875 45.015625 C 201.453125 45.535156 199.6875 45.988281 198.25 46.375 C 196.820312 46.769531 195.453125 47.097656 194.140625 47.359375 C 174.304688 53.878906 154.734375 61.1875 135.421875 69.28125 C 116.117188 77.375 97.332031 86.242188 79.0625 95.890625 C 75.675781 97.722656 72.347656 99.8125 69.078125 102.15625 C 65.816406 104.507812 62.625 106.726562 59.5 108.8125 C 58.457031 109.59375 57.476562 110.570312 56.5625 111.75 C 55.644531 112.925781 55.578125 114.425781 56.359375 116.25 Z M 56.359375 116.25 "/></g></g></g><g fill="#293041" fill-opacity="1"><g transform="translate(378.288104, 424.770924)"><g><path d="M 205.5 -250.90625 C 207.0625 -250.90625 208.5625 -250.445312 210 -249.53125 C 211.4375 -248.613281 212.9375 -247.765625 214.5 -246.984375 C 189.1875 -245.160156 164.066406 -243.007812 139.140625 -240.53125 C 114.222656 -238.050781 89.109375 -235.632812 63.796875 -233.28125 C 63.015625 -231.71875 62.234375 -230.148438 61.453125 -228.578125 C 60.671875 -227.015625 60.019531 -225.453125 59.5 -223.890625 C 47.75 -176.921875 35.546875 -130.144531 22.890625 -83.5625 C 10.242188 -36.988281 -1.035156 9.78125 -10.953125 56.75 C -12.003906 62.226562 -13.050781 67.578125 -14.09375 72.796875 C -15.132812 78.023438 -16.175781 83.25 -17.21875 88.46875 C -17.738281 91.070312 -18.328125 93.613281 -18.984375 96.09375 C -19.640625 98.570312 -20.359375 100.984375 -21.140625 103.328125 C -23.484375 103.597656 -25.175781 103.144531 -26.21875 101.96875 C -27.269531 100.789062 -27.796875 99.550781 -27.796875 98.25 C -28.054688 95.113281 -28.1875 92.109375 -28.1875 89.234375 C -28.1875 86.367188 -28.054688 83.367188 -27.796875 80.234375 C -25.703125 59.359375 -22.695312 38.484375 -18.78125 17.609375 C -14.875 -3.265625 -10.832031 -24.007812 -6.65625 -44.625 C -0.914062 -73.0625 5.34375 -101.304688 12.125 -129.359375 C 18.914062 -157.410156 25.960938 -185.398438 33.265625 -213.328125 C 33.785156 -215.671875 34.304688 -218.082031 34.828125 -220.5625 C 35.359375 -223.039062 35.882812 -225.71875 36.40625 -228.59375 C 34.570312 -228.851562 32.804688 -229.113281 31.109375 -229.375 C 29.421875 -229.632812 27.789062 -229.632812 26.21875 -229.375 C 13.695312 -228.070312 1.238281 -226.632812 -11.15625 -225.0625 C -23.550781 -223.5 -35.878906 -221.9375 -48.140625 -220.375 C -51.015625 -219.851562 -53.035156 -219.785156 -54.203125 -220.171875 C -55.378906 -220.566406 -58.316406 -222.066406 -63.015625 -224.671875 C -60.929688 -228.066406 -58.125 -230.15625 -54.59375 -230.9375 C -51.070312 -231.71875 -47.617188 -232.5 -44.234375 -233.28125 C -35.617188 -234.851562 -26.875 -236.222656 -18 -237.390625 C -9.132812 -238.566406 -0.265625 -239.804688 8.609375 -241.109375 C 13.828125 -241.898438 19.175781 -242.617188 24.65625 -243.265625 C 30.132812 -243.921875 35.613281 -244.640625 41.09375 -245.421875 C 42.40625 -249.597656 43.710938 -253.835938 45.015625 -258.140625 C 46.316406 -262.441406 47.75 -266.679688 49.3125 -270.859375 C 51.144531 -275.554688 52.972656 -280.316406 54.796875 -285.140625 C 56.617188 -289.972656 58.707031 -294.476562 61.0625 -298.65625 C 63.144531 -302.570312 65.882812 -305.179688 69.28125 -306.484375 C 72.675781 -307.785156 76.722656 -307.394531 81.421875 -305.3125 C 81.421875 -300.351562 80.441406 -295.71875 78.484375 -291.40625 C 76.523438 -287.101562 74.894531 -282.734375 73.59375 -278.296875 C 72.539062 -273.597656 71.425781 -268.898438 70.25 -264.203125 C 69.082031 -259.515625 67.71875 -254.554688 66.15625 -249.328125 C 68.757812 -249.066406 71.039062 -248.738281 73 -248.34375 C 74.957031 -247.957031 76.847656 -247.894531 78.671875 -248.15625 C 93.285156 -248.675781 107.898438 -249.394531 122.515625 -250.3125 C 137.128906 -251.226562 151.742188 -251.945312 166.359375 -252.46875 C 172.878906 -252.726562 179.398438 -252.660156 185.921875 -252.265625 C 192.441406 -251.878906 198.96875 -251.425781 205.5 -250.90625 Z M 205.5 -250.90625 "/></g></g></g><g fill="#293041" fill-opacity="1"><g transform="translate(483.582538, 424.770924)"><g><path d="M 93.15625 -40.3125 C 95.507812 -41.09375 97.140625 -41.414062 98.046875 -41.28125 C 98.960938 -41.15625 100.859375 -40.3125 103.734375 -38.75 C 100.597656 -35.351562 97.722656 -32.875 95.109375 -31.3125 C 92.503906 -29.75 88.984375 -28.707031 84.546875 -28.1875 C 80.109375 -27.664062 73.582031 -27.273438 64.96875 -27.015625 C 61.320312 -23.617188 57.863281 -20.351562 54.59375 -17.21875 C 51.332031 -14.09375 48.140625 -10.960938 45.015625 -7.828125 C 41.097656 -3.910156 37.050781 -0.519531 32.875 2.34375 C 28.695312 5.21875 24.265625 7.046875 19.578125 7.828125 C 16.441406 8.347656 13.304688 8.539062 10.171875 8.40625 C 7.046875 8.28125 4.046875 7.828125 1.171875 7.046875 C -8.742188 3.910156 -12.523438 -4.960938 -10.171875 -19.578125 C -9.390625 -24.796875 -8.082031 -29.6875 -6.25 -34.25 C -4.425781 -38.8125 -2.34375 -43.179688 0 -47.359375 C 1.820312 -50.753906 3.773438 -54.144531 5.859375 -57.53125 C 7.953125 -60.925781 10.175781 -64.453125 12.53125 -68.109375 C 12.269531 -75.671875 13.570312 -82.320312 16.4375 -88.0625 C 19.3125 -93.8125 22.96875 -99.164062 27.40625 -104.125 C 31.832031 -108.8125 36.394531 -112.851562 41.09375 -116.25 C 45.789062 -119.644531 50.878906 -121.992188 56.359375 -123.296875 C 60.535156 -124.078125 64.0625 -124.335938 66.9375 -124.078125 C 79.976562 -122.253906 86.238281 -112.46875 85.71875 -94.71875 C 85.457031 -87.675781 84.476562 -80.890625 82.78125 -74.359375 C 81.082031 -67.835938 78.929688 -61.445312 76.328125 -55.1875 C 75.546875 -52.582031 74.628906 -49.910156 73.578125 -47.171875 C 72.535156 -44.429688 71.363281 -41.625 70.0625 -38.75 C 74.238281 -37.1875 78.21875 -36.726562 82 -37.375 C 85.78125 -38.03125 89.5 -39.007812 93.15625 -40.3125 Z M 12.53125 -1.171875 C 15.914062 -1.691406 19.828125 -3.515625 24.265625 -6.640625 C 28.703125 -9.773438 32.941406 -13.625 36.984375 -18.1875 C 41.035156 -22.757812 44.234375 -27.394531 46.578125 -32.09375 C 44.234375 -33.65625 41.882812 -35.15625 39.53125 -36.59375 C 37.1875 -38.03125 34.96875 -39.660156 32.875 -41.484375 C 30.53125 -43.054688 28.3125 -44.882812 26.21875 -46.96875 C 24.132812 -49.0625 21.785156 -51.148438 19.171875 -53.234375 C 15.785156 -48.796875 13.175781 -44.097656 11.34375 -39.140625 C 9.519531 -34.179688 7.828125 -29.09375 6.265625 -23.875 C 5.742188 -21.53125 5.414062 -18.988281 5.28125 -16.25 C 5.15625 -13.507812 5.09375 -10.832031 5.09375 -8.21875 C 5.351562 -2.738281 7.832031 -0.390625 12.53125 -1.171875 Z M 55.1875 -43.84375 C 60.144531 -52.1875 63.992188 -60.859375 66.734375 -69.859375 C 69.472656 -78.867188 70.710938 -88.460938 70.453125 -98.640625 C 70.453125 -101.503906 70.125 -104.304688 69.46875 -107.046875 C 68.820312 -109.785156 67.191406 -111.941406 64.578125 -113.515625 C 59.097656 -111.160156 54.269531 -107.632812 50.09375 -102.9375 C 45.925781 -98.238281 42.144531 -92.628906 38.75 -86.109375 C 37.445312 -83.242188 36.664062 -80.304688 36.40625 -77.296875 C 36.144531 -74.296875 36.40625 -71.101562 37.1875 -67.71875 C 38.75 -61.71875 41.03125 -56.820312 44.03125 -53.03125 C 47.03125 -49.25 50.75 -46.1875 55.1875 -43.84375 Z M 55.1875 -43.84375 "/></g></g></g><g fill="#293041" fill-opacity="1"><g transform="translate(617.449705, 424.770924)"><g><path d="M 114.6875 -110.765625 C 117.289062 -99.804688 117.03125 -89.238281 113.90625 -79.0625 C 113.644531 -78.28125 112.988281 -77.300781 111.9375 -76.125 C 110.894531 -74.957031 110.113281 -74.503906 109.59375 -74.765625 C 106.46875 -75.285156 104.117188 -76.71875 102.546875 -79.0625 C 101.765625 -80.375 101.175781 -81.941406 100.78125 -83.765625 C 100.394531 -85.585938 99.941406 -87.414062 99.421875 -89.25 C 98.640625 -91.332031 97.851562 -93.546875 97.0625 -95.890625 C 96.28125 -98.242188 95.367188 -100.859375 94.328125 -103.734375 C 92.503906 -101.898438 90.742188 -100.332031 89.046875 -99.03125 C 87.347656 -97.726562 85.847656 -96.289062 84.546875 -94.71875 C 79.066406 -87.675781 73.585938 -80.628906 68.109375 -73.578125 C 62.628906 -66.535156 57.148438 -59.363281 51.671875 -52.0625 C 47.492188 -46.582031 43.378906 -40.90625 39.328125 -35.03125 C 35.285156 -29.15625 31.046875 -23.347656 26.609375 -17.609375 C 24.523438 -14.742188 22.242188 -12.070312 19.765625 -9.59375 C 17.285156 -7.113281 14.742188 -4.566406 12.140625 -1.953125 C 7.960938 2.222656 2.476562 4.179688 -4.3125 3.921875 C -13.175781 3.921875 -16.695312 -0.253906 -14.875 -8.609375 C -13.832031 -13.566406 -12.132812 -18.65625 -9.78125 -23.875 C -3.78125 -38.226562 2.21875 -52.515625 8.21875 -66.734375 C 14.21875 -80.953125 20.347656 -95.109375 26.609375 -109.203125 C 27.398438 -111.296875 28.25 -113.253906 29.15625 -115.078125 C 30.070312 -116.898438 31.050781 -118.597656 32.09375 -120.171875 C 35.226562 -125.648438 40.445312 -126.953125 47.75 -124.078125 C 47.226562 -114.679688 45.140625 -105.613281 41.484375 -96.875 C 37.835938 -88.132812 35.753906 -78.414062 35.234375 -67.71875 C 37.578125 -70.320312 39.53125 -72.535156 41.09375 -74.359375 C 42.664062 -76.191406 44.101562 -77.757812 45.40625 -79.0625 C 50.363281 -85.0625 55.320312 -91.0625 60.28125 -97.0625 C 65.238281 -103.070312 70.195312 -108.945312 75.15625 -114.6875 C 80.375 -120.945312 87.023438 -124.335938 95.109375 -124.859375 C 105.804688 -125.898438 112.332031 -121.203125 114.6875 -110.765625 Z M 114.6875 -110.765625 "/></g></g></g><g clip-path="url(#ac9c23ccf7)"><g fill="#293041" fill-opacity="1"><g transform="translate(795.154541, 424.770924)"><g><path d="M 190.234375 -35.625 C 193.617188 -37.96875 197.332031 -40.25 201.375 -42.46875 C 205.425781 -44.6875 210.0625 -46.316406 215.28125 -47.359375 C 214.757812 -44.234375 213.648438 -42.144531 211.953125 -41.09375 C 210.253906 -40.050781 208.753906 -38.878906 207.453125 -37.578125 C 191.535156 -24.785156 175.679688 -12.0625 159.890625 0.59375 C 144.109375 13.25 128.257812 25.835938 112.34375 38.359375 C 108.425781 41.492188 105.097656 44.882812 102.359375 48.53125 C 99.617188 52.1875 97.203125 56.234375 95.109375 60.671875 C 82.328125 86.503906 67.976562 111.289062 52.0625 135.03125 C 36.144531 158.78125 18.660156 181.484375 -0.390625 203.140625 C -7.960938 211.753906 -15.921875 220.101562 -24.265625 228.1875 C -32.617188 236.28125 -41.625 243.722656 -51.28125 250.515625 C -54.925781 253.117188 -58.707031 255.53125 -62.625 257.75 C -66.539062 259.96875 -70.457031 262.117188 -74.375 264.203125 C -77.5 265.773438 -80.890625 266.691406 -84.546875 266.953125 C -88.203125 267.210938 -91.722656 266.953125 -95.109375 266.171875 C -99.285156 265.648438 -102.414062 263.953125 -104.5 261.078125 C -106.59375 258.203125 -107.117188 254.8125 -106.078125 250.90625 C -103.203125 242.03125 -99.675781 233.804688 -95.5 226.234375 C -82.195312 203.796875 -66.800781 183.445312 -49.3125 165.1875 C -28.4375 143.78125 -7.429688 123.296875 13.703125 103.734375 C 23.359375 94.859375 33.335938 86.046875 43.640625 77.296875 C 53.953125 68.554688 64.195312 59.882812 74.375 51.28125 C 81.15625 45.800781 85.851562 39.015625 88.46875 30.921875 C 97.851562 2.210938 104.113281 -27.40625 107.25 -57.9375 C 107.507812 -61.320312 107.640625 -64.644531 107.640625 -67.90625 C 107.640625 -71.164062 107.507812 -74.363281 107.25 -77.5 C 107.25 -79.0625 106.859375 -80.492188 106.078125 -81.796875 C 105.296875 -83.109375 104.644531 -84.804688 104.125 -86.890625 C 102.03125 -85.328125 100.203125 -84.023438 98.640625 -82.984375 C 97.078125 -81.941406 95.769531 -80.894531 94.71875 -79.84375 C 90.28125 -74.625 85.910156 -69.335938 81.609375 -63.984375 C 77.304688 -58.640625 73.066406 -53.226562 68.890625 -47.75 C 63.929688 -41.75 59.164062 -35.617188 54.59375 -29.359375 C 50.03125 -23.097656 45.269531 -16.960938 40.3125 -10.953125 C 37.707031 -7.828125 34.835938 -4.894531 31.703125 -2.15625 C 28.578125 0.582031 25.445312 3.390625 22.3125 6.265625 C 19.4375 8.609375 16.304688 10.300781 12.921875 11.34375 C 5.609375 13.4375 -0.0664062 12.914062 -4.109375 9.78125 C -8.148438 6.65625 -9.78125 1.175781 -9 -6.65625 C -9 -9.519531 -8.671875 -12.453125 -8.015625 -15.453125 C -7.367188 -18.460938 -6.65625 -21.398438 -5.875 -24.265625 C -2.476562 -36.273438 1.890625 -47.691406 7.234375 -58.515625 C 12.585938 -69.347656 18.65625 -79.984375 25.4375 -90.421875 C 27.007812 -93.023438 28.96875 -95.046875 31.3125 -96.484375 C 33.664062 -97.921875 36.664062 -97.722656 40.3125 -95.890625 C 39.789062 -92.242188 38.679688 -88.851562 36.984375 -85.71875 C 35.285156 -82.59375 33.523438 -79.460938 31.703125 -76.328125 C 22.046875 -58.578125 14.476562 -39.921875 9 -20.359375 C 7.175781 -14.085938 5.875 -7.5625 5.09375 -0.78125 C 4.832031 0.257812 5.023438 1.5 5.671875 2.9375 C 6.328125 4.375 7.046875 6.132812 7.828125 8.21875 C 9.648438 7.175781 11.28125 6.328125 12.71875 5.671875 C 14.15625 5.023438 15.265625 4.175781 16.046875 3.125 C 19.703125 -0.78125 23.289062 -4.753906 26.8125 -8.796875 C 30.332031 -12.847656 33.660156 -17.09375 36.796875 -21.53125 C 41.753906 -28.3125 46.445312 -35.222656 50.875 -42.265625 C 55.3125 -49.316406 59.878906 -56.234375 64.578125 -63.015625 C 67.972656 -67.710938 71.429688 -72.210938 74.953125 -76.515625 C 78.472656 -80.828125 82.191406 -85.203125 86.109375 -89.640625 C 88.984375 -93.023438 92.640625 -95.894531 97.078125 -98.25 C 104.640625 -101.632812 111.351562 -101.890625 117.21875 -99.015625 C 123.09375 -96.148438 126.816406 -90.804688 128.390625 -82.984375 C 129.691406 -75.410156 130.144531 -67.90625 129.75 -60.46875 C 129.363281 -53.03125 128.519531 -45.660156 127.21875 -38.359375 C 125.90625 -30.796875 124.269531 -23.226562 122.3125 -15.65625 C 120.363281 -8.09375 118.601562 -0.523438 117.03125 7.046875 C 116.769531 8.085938 116.507812 9.195312 116.25 10.375 C 115.988281 11.550781 115.726562 12.921875 115.46875 14.484375 C 119.382812 14.222656 122.453125 13.046875 124.671875 10.953125 C 126.890625 8.867188 129.171875 7.046875 131.515625 5.484375 C 141.171875 -1.304688 150.890625 -8.15625 160.671875 -15.0625 C 170.460938 -21.976562 180.316406 -28.832031 190.234375 -35.625 Z M -81.421875 254.421875 C -69.929688 249.203125 -57.988281 241.4375 -45.59375 231.125 C -33.207031 220.820312 -21.078125 209.144531 -9.203125 196.09375 C 2.671875 183.050781 13.628906 169.679688 23.671875 155.984375 C 33.722656 142.285156 42.140625 129.300781 48.921875 117.03125 C 55.710938 104.769531 60.148438 94.460938 62.234375 86.109375 C 61.191406 86.109375 60.671875 86.109375 60.671875 86.109375 C 59.890625 86.367188 59.101562 86.691406 58.3125 87.078125 C 57.53125 87.472656 56.75 88.066406 55.96875 88.859375 C 33.789062 109.210938 12.394531 130.21875 -8.21875 151.875 C -28.832031 173.53125 -48.015625 196.753906 -65.765625 221.546875 C -68.367188 225.460938 -70.910156 229.441406 -73.390625 233.484375 C -75.867188 237.523438 -78.148438 241.632812 -80.234375 245.8125 C -81.023438 246.851562 -81.351562 248.09375 -81.21875 249.53125 C -81.09375 250.96875 -81.160156 252.597656 -81.421875 254.421875 Z M -81.421875 254.421875 "/></g></g></g></g></g></g><g transform="matrix(1, 0, 0, 1, 0, 36)"><g clip-path="url(#2e7f72d3d3)"><g fill="#293041" fill-opacity="1"><g transform="translate(37.072622, 471.312574)"><g><path d="M 96.25 -333.75 C 102.625 -333.175781 105.800781 -329.609375 105.78125 -323.046875 C 105.945312 -314.921875 105.550781 -307.117188 104.59375 -299.640625 C 100.53125 -269.472656 95.847656 -239.492188 90.546875 -209.703125 C 85.253906 -179.921875 79.238281 -150.175781 72.5 -120.46875 C 68.03125 -100.507812 63.765625 -80.4375 59.703125 -60.25 C 55.640625 -40.0625 51.515625 -19.867188 47.328125 0.328125 C 46.722656 4.078125 46.390625 7.925781 46.328125 11.875 C 46.273438 15.820312 46.164062 20.429688 46 25.703125 C 44.207031 26.179688 42.367188 26.796875 40.484375 27.546875 C 38.597656 28.296875 36.75 28.773438 34.9375 28.984375 C 27.132812 29.640625 22.765625 25.953125 21.828125 17.921875 C 21.484375 15.066406 21.332031 12.128906 21.375 9.109375 C 21.414062 6.085938 21.648438 3.101562 22.078125 0.15625 C 24.773438 -19.34375 27.539062 -38.785156 30.375 -58.171875 C 33.21875 -77.554688 36.265625 -96.894531 39.515625 -116.1875 C 44.066406 -142.207031 48.765625 -168.050781 53.609375 -193.71875 C 58.460938 -219.394531 63.316406 -245.128906 68.171875 -270.921875 C 68.671875 -273.335938 69.113281 -275.6875 69.5 -277.96875 C 69.882812 -280.25 70.332031 -282.601562 70.84375 -285.03125 C 68.613281 -286.082031 67.109375 -286.035156 66.328125 -284.890625 C 65.546875 -283.742188 64.6875 -282.722656 63.75 -281.828125 C 61.414062 -279.191406 59.097656 -276.488281 56.796875 -273.71875 C 54.503906 -270.957031 52.066406 -268.238281 49.484375 -265.5625 C 48.085938 -264.082031 46.597656 -262.785156 45.015625 -261.671875 C 43.429688 -260.566406 41.796875 -259.394531 40.109375 -258.15625 C 39.460938 -259.125 38.898438 -259.972656 38.421875 -260.703125 C 37.953125 -261.429688 37.832031 -261.941406 38.0625 -262.234375 C 43.238281 -271.785156 48.472656 -281.40625 53.765625 -291.09375 C 59.066406 -300.78125 64.4375 -310.414062 69.875 -320 C 72.726562 -324.800781 76.984375 -328.847656 82.640625 -332.140625 C 84.359375 -333.128906 86.460938 -333.640625 88.953125 -333.671875 C 91.441406 -333.710938 93.875 -333.738281 96.25 -333.75 Z M 96.25 -333.75 "/></g></g></g><g fill="#293041" fill-opacity="1"><g transform="translate(213.555247, 450.506471)"><g><path d="M 140.671875 -217.59375 C 142.484375 -217.800781 144.492188 -217.445312 146.703125 -216.53125 C 148.921875 -215.613281 151.785156 -214.695312 155.296875 -213.78125 C 152.609375 -212.15625 150.78125 -210.957031 149.8125 -210.1875 C 148.851562 -209.425781 147.988281 -209 147.21875 -208.90625 C 125.175781 -204.207031 103.503906 -198.566406 82.203125 -191.984375 C 60.910156 -185.398438 39.640625 -178.617188 18.390625 -171.640625 C 18.160156 -171.359375 17.914062 -171.203125 17.65625 -171.171875 C 17.40625 -171.140625 17.164062 -170.976562 16.9375 -170.6875 C 13.882812 -169.800781 10.9375 -169.125 8.09375 -168.65625 C 5.257812 -168.195312 2.640625 -169.269531 0.234375 -171.875 C -1.242188 -173.28125 -1.148438 -175.257812 0.515625 -177.8125 C 2.179688 -180.375 5.253906 -182.710938 9.734375 -184.828125 C 14.484375 -186.953125 19.363281 -189.035156 24.375 -191.078125 C 29.382812 -193.117188 34.425781 -194.957031 39.5 -196.59375 C 52.882812 -201.0625 66.359375 -204.816406 79.921875 -207.859375 C 93.492188 -210.910156 107.234375 -213.648438 121.140625 -216.078125 C 128.066406 -217.410156 134.578125 -217.914062 140.671875 -217.59375 Z M 140.671875 -217.59375 "/></g></g></g></g></g></svg>